<svg id="visual" viewBox="0 0 600 900" width="600" height="900" xmlns="http://www.w3.org/2000/svg" xmlns:xlink="http://www.w3.org/1999/xlink" version="1.1"><rect x="0" y="0" width="600" height="900" fill="#edf3f9"></rect><defs><linearGradient id="grad1_0" x1="0%" y1="100%" x2="100%" y2="0%"><stop offset="30%" stop-color="#fbae3c" stop-opacity="1"></stop><stop offset="70%" stop-color="#fbae3c" stop-opacity="1"></stop></linearGradient></defs><defs><linearGradient id="grad1_1" x1="0%" y1="100%" x2="100%" y2="0%"><stop offset="30%" stop-color="#fbae3c" stop-opacity="1"></stop><stop offset="70%" stop-color="#ffa79c" stop-opacity="1"></stop></linearGradient></defs><defs><linearGradient id="grad1_2" x1="0%" y1="100%" x2="100%" y2="0%"><stop offset="30%" stop-color="#ffc0ea" stop-opacity="1"></stop><stop offset="70%" stop-color="#ffa79c" stop-opacity="1"></stop></linearGradient></defs><defs><linearGradient id="grad1_3" x1="0%" y1="100%" x2="100%" y2="0%"><stop offset="30%" stop-color="#ffc0ea" stop-opacity="1"></stop><stop offset="70%" stop-color="#e9e0ff" stop-opacity="1"></stop></linearGradient></defs><defs><linearGradient id="grad1_4" x1="0%" y1="100%" x2="100%" y2="0%"><stop offset="30%" stop-color="#edf3f9" stop-opacity="1"></stop><stop offset="70%" stop-color="#e9e0ff" stop-opacity="1"></stop></linearGradient></defs><defs><linearGradient id="grad2_0" x1="0%" y1="100%" x2="100%" y2="0%"><stop offset="30%" stop-color="#fbae3c" stop-opacity="1"></stop><stop offset="70%" stop-color="#fbae3c" stop-opacity="1"></stop></linearGradient></defs><defs><linearGradient id="grad2_1" x1="0%" y1="100%" x2="100%" y2="0%"><stop offset="30%" stop-color="#ffa79c" stop-opacity="1"></stop><stop offset="70%" stop-color="#fbae3c" stop-opacity="1"></stop></linearGradient></defs><defs><linearGradient id="grad2_2" x1="0%" y1="100%" x2="100%" y2="0%"><stop offset="30%" stop-color="#ffa79c" stop-opacity="1"></stop><stop offset="70%" stop-color="#ffc0ea" stop-opacity="1"></stop></linearGradient></defs><defs><linearGradient id="grad2_3" x1="0%" y1="100%" x2="100%" y2="0%"><stop offset="30%" stop-color="#e9e0ff" stop-opacity="1"></stop><stop offset="70%" stop-color="#ffc0ea" stop-opacity="1"></stop></linearGradient></defs><defs><linearGradient id="grad2_4" x1="0%" y1="100%" x2="100%" y2="0%"><stop offset="30%" stop-color="#e9e0ff" stop-opacity="1"></stop><stop offset="70%" stop-color="#edf3f9" stop-opacity="1"></stop></linearGradient></defs><g transform="translate(600, 900)"><path d="M-216.3 0C-208.2 -25.8 -200.1 -51.7 -191.2 -79.2C-182.4 -106.8 -172.8 -136.1 -153 -153C-133.1 -169.9 -103 -174.4 -75.8 -182.9C-48.6 -191.4 -24.3 -203.9 0 -216.3L0 0Z" fill="#e4ebff"></path><path d="M-173.1 0C-166.6 -20.7 -160.1 -41.3 -153 -63.4C-145.9 -85.4 -138.3 -108.8 -122.4 -122.4C-106.5 -135.9 -82.4 -139.5 -60.6 -146.3C-38.9 -153.1 -19.4 -163.1 0 -173.1L0 0Z" fill="#fbd1ff"></path><path d="M-129.8 0C-124.9 -15.5 -120.1 -31 -114.7 -47.5C-109.4 -64.1 -103.7 -81.6 -91.8 -91.8C-79.9 -101.9 -61.8 -104.7 -45.5 -109.8C-29.1 -114.9 -14.6 -122.3 0 -129.8L0 0Z" fill="#ffb0c8"></path><path d="M-86.5 0C-83.3 -10.3 -80 -20.7 -76.5 -31.7C-73 -42.7 -69.1 -54.4 -61.2 -61.2C-53.2 -68 -41.2 -69.8 -30.3 -73.2C-19.4 -76.6 -9.7 -81.6 0 -86.5L0 0Z" fill="#ffa66c"></path><path d="M-43.3 0C-41.6 -5.2 -40 -10.3 -38.2 -15.8C-36.5 -21.4 -34.6 -27.2 -30.6 -30.6C-26.6 -34 -20.6 -34.9 -15.2 -36.6C-9.7 -38.3 -4.9 -40.8 0 -43.3L0 0Z" fill="#fbae3c"></path></g><g transform="translate(0, 0)"><path d="M216.3 0C200.9 25.3 185.5 50.6 170.9 70.8C156.3 91 142.4 106.1 129.4 129.4C116.4 152.7 104.2 184 82.8 199.9C61.4 215.7 30.7 216 0 216.3L0 0Z" fill="#e4ebff"></path><path d="M173.1 0C160.8 20.2 148.4 40.5 136.7 56.6C125 72.8 113.9 84.9 103.5 103.5C93.1 122.1 83.4 147.2 66.2 159.9C49.1 172.6 24.5 172.8 0 173.1L0 0Z" fill="#fbd1ff"></path><path d="M129.8 0C120.6 15.2 111.3 30.3 102.6 42.5C93.8 54.6 85.5 63.7 77.6 77.6C69.8 91.6 62.5 110.4 49.7 119.9C36.8 129.4 18.4 129.6 0 129.8L0 0Z" fill="#ffb0c8"></path><path d="M86.5 0C80.4 10.1 74.2 20.2 68.4 28.3C62.5 36.4 57 42.5 51.8 51.8C46.6 61.1 41.7 73.6 33.1 79.9C24.5 86.3 12.3 86.4 0 86.5L0 0Z" fill="#ffa66c"></path><path d="M43.3 0C40.2 5.1 37.1 10.1 34.2 14.2C31.3 18.2 28.5 21.2 25.9 25.9C23.3 30.5 20.8 36.8 16.6 40C12.3 43.1 6.1 43.2 0 43.3L0 0Z" fill="#fbae3c"></path></g></svg>