<svg id="visual" viewBox="0 0 1920 1080" width="1920" height="1080" xmlns="http://www.w3.org/2000/svg" xmlns:xlink="http://www.w3.org/1999/xlink" version="1.1"><rect x="0" y="0" width="1920" height="1080" fill="#edf3f9"></rect><defs><linearGradient id="grad1_0" x1="43.8%" y1="100%" x2="100%" y2="0%"><stop offset="14.444444444444446%" stop-color="#fbae3c" stop-opacity="1"></stop><stop offset="85.55555555555554%" stop-color="#fbae3c" stop-opacity="1"></stop></linearGradient></defs><defs><linearGradient id="grad1_1" x1="43.8%" y1="100%" x2="100%" y2="0%"><stop offset="14.444444444444446%" stop-color="#fbae3c" stop-opacity="1"></stop><stop offset="85.55555555555554%" stop-color="#ffa79c" stop-opacity="1"></stop></linearGradient></defs><defs><linearGradient id="grad1_2" x1="43.8%" y1="100%" x2="100%" y2="0%"><stop offset="14.444444444444446%" stop-color="#ffc0ea" stop-opacity="1"></stop><stop offset="85.55555555555554%" stop-color="#ffa79c" stop-opacity="1"></stop></linearGradient></defs><defs><linearGradient id="grad1_3" x1="43.8%" y1="100%" x2="100%" y2="0%"><stop offset="14.444444444444446%" stop-color="#ffc0ea" stop-opacity="1"></stop><stop offset="85.55555555555554%" stop-color="#e9e0ff" stop-opacity="1"></stop></linearGradient></defs><defs><linearGradient id="grad1_4" x1="43.8%" y1="100%" x2="100%" y2="0%"><stop offset="14.444444444444446%" stop-color="#edf3f9" stop-opacity="1"></stop><stop offset="85.55555555555554%" stop-color="#e9e0ff" stop-opacity="1"></stop></linearGradient></defs><defs><linearGradient id="grad2_0" x1="0%" y1="100%" x2="56.3%" y2="0%"><stop offset="14.444444444444446%" stop-color="#fbae3c" stop-opacity="1"></stop><stop offset="85.55555555555554%" stop-color="#fbae3c" stop-opacity="1"></stop></linearGradient></defs><defs><linearGradient id="grad2_1" x1="0%" y1="100%" x2="56.3%" y2="0%"><stop offset="14.444444444444446%" stop-color="#ffa79c" stop-opacity="1"></stop><stop offset="85.55555555555554%" stop-color="#fbae3c" stop-opacity="1"></stop></linearGradient></defs><defs><linearGradient id="grad2_2" x1="0%" y1="100%" x2="56.3%" y2="0%"><stop offset="14.444444444444446%" stop-color="#ffa79c" stop-opacity="1"></stop><stop offset="85.55555555555554%" stop-color="#ffc0ea" stop-opacity="1"></stop></linearGradient></defs><defs><linearGradient id="grad2_3" x1="0%" y1="100%" x2="56.3%" y2="0%"><stop offset="14.444444444444446%" stop-color="#e9e0ff" stop-opacity="1"></stop><stop offset="85.55555555555554%" stop-color="#ffc0ea" stop-opacity="1"></stop></linearGradient></defs><defs><linearGradient id="grad2_4" x1="0%" y1="100%" x2="56.3%" y2="0%"><stop offset="14.444444444444446%" stop-color="#e9e0ff" stop-opacity="1"></stop><stop offset="85.55555555555554%" stop-color="#edf3f9" stop-opacity="1"></stop></linearGradient></defs><g transform="translate(1920, 1080)"><path d="M-432 0C-401.2 -45.4 -370.4 -90.8 -354.8 -147C-339.2 -203.1 -338.9 -270.1 -305.5 -305.5C-272.1 -340.8 -205.7 -344.5 -149.2 -360.3C-92.8 -376.1 -46.4 -404.1 0 -432L0 0Z" fill="#e4ebff"></path><path d="M-345.6 0C-320.9 -36.3 -296.3 -72.6 -283.8 -117.6C-271.4 -162.5 -271.1 -216.1 -244.4 -244.4C-217.7 -272.6 -164.5 -275.6 -119.4 -288.3C-74.3 -300.9 -37.1 -323.3 0 -345.6L0 0Z" fill="#fbd1ff"></path><path d="M-259.2 0C-240.7 -27.2 -222.2 -54.5 -212.9 -88.2C-203.5 -121.9 -203.3 -162.1 -183.3 -183.3C-163.3 -204.5 -123.4 -206.7 -89.5 -216.2C-55.7 -225.7 -27.8 -242.4 0 -259.2L0 0Z" fill="#ffb0c8"></path><path d="M-172.8 0C-160.5 -18.2 -148.1 -36.3 -141.9 -58.8C-135.7 -81.3 -135.5 -108.1 -122.2 -122.2C-108.8 -136.3 -82.3 -137.8 -59.7 -144.1C-37.1 -150.5 -18.6 -161.6 0 -172.8L0 0Z" fill="#ffa66c"></path><path d="M-86.4 0C-80.2 -9.1 -74.1 -18.2 -71 -29.4C-67.8 -40.6 -67.8 -54 -61.1 -61.1C-54.4 -68.2 -41.1 -68.9 -29.8 -72.1C-18.6 -75.2 -9.3 -80.8 0 -86.4L0 0Z" fill="#fbae3c"></path></g><g transform="translate(0, 0)"><path d="M432 0C397.7 44 363.5 88 348.3 144.3C333.1 200.5 337 269 305.5 305.5C273.9 341.9 206.8 346.4 150 362.2C93.2 377.9 46.6 405 0 432L0 0Z" fill="#e4ebff"></path><path d="M345.6 0C318.2 35.2 290.8 70.4 278.6 115.4C266.5 160.4 269.6 215.2 244.4 244.4C219.1 273.6 165.5 277.1 120 289.7C74.5 302.3 37.3 324 0 345.6L0 0Z" fill="#fbd1ff"></path><path d="M259.2 0C238.6 26.4 218.1 52.8 209 86.6C199.9 120.3 202.2 161.4 183.3 183.3C164.3 205.2 124.1 207.8 90 217.3C55.9 226.7 28 243 0 259.2L0 0Z" fill="#ffb0c8"></path><path d="M172.8 0C159.1 17.6 145.4 35.2 139.3 57.7C133.3 80.2 134.8 107.6 122.2 122.2C109.6 136.8 82.7 138.6 60 144.9C37.3 151.2 18.6 162 0 172.8L0 0Z" fill="#ffa66c"></path><path d="M86.4 0C79.5 8.8 72.7 17.6 69.7 28.9C66.6 40.1 67.4 53.8 61.1 61.1C54.8 68.4 41.4 69.3 30 72.4C18.6 75.6 9.3 81 0 86.4L0 0Z" fill="#fbae3c"></path></g></svg>