<svg id="visual" viewBox="0 0 1600 1080" width="1600" height="1080" xmlns="http://www.w3.org/2000/svg" xmlns:xlink="http://www.w3.org/1999/xlink" version="1.1"><rect x="0" y="0" width="1600" height="1080" fill="#001122"></rect><defs><linearGradient id="grad1_0" x1="32.5%" y1="100%" x2="100%" y2="0%"><stop offset="20.37037037037037%" stop-color="#fbae3c" stop-opacity="1"></stop><stop offset="79.62962962962963%" stop-color="#fbae3c" stop-opacity="1"></stop></linearGradient></defs><defs><linearGradient id="grad1_1" x1="32.5%" y1="100%" x2="100%" y2="0%"><stop offset="20.37037037037037%" stop-color="#fbae3c" stop-opacity="1"></stop><stop offset="79.62962962962963%" stop-color="#e1685b" stop-opacity="1"></stop></linearGradient></defs><defs><linearGradient id="grad1_2" x1="32.5%" y1="100%" x2="100%" y2="0%"><stop offset="20.37037037037037%" stop-color="#98426a" stop-opacity="1"></stop><stop offset="79.62962962962963%" stop-color="#e1685b" stop-opacity="1"></stop></linearGradient></defs><defs><linearGradient id="grad1_3" x1="32.5%" y1="100%" x2="100%" y2="0%"><stop offset="20.37037037037037%" stop-color="#98426a" stop-opacity="1"></stop><stop offset="79.62962962962963%" stop-color="#412e55" stop-opacity="1"></stop></linearGradient></defs><defs><linearGradient id="grad1_4" x1="32.5%" y1="100%" x2="100%" y2="0%"><stop offset="20.37037037037037%" stop-color="#001122" stop-opacity="1"></stop><stop offset="79.62962962962963%" stop-color="#412e55" stop-opacity="1"></stop></linearGradient></defs><defs><linearGradient id="grad2_0" x1="0%" y1="100%" x2="67.5%" y2="0%"><stop offset="20.37037037037037%" stop-color="#fbae3c" stop-opacity="1"></stop><stop offset="79.62962962962963%" stop-color="#fbae3c" stop-opacity="1"></stop></linearGradient></defs><defs><linearGradient id="grad2_1" x1="0%" y1="100%" x2="67.5%" y2="0%"><stop offset="20.37037037037037%" stop-color="#e1685b" stop-opacity="1"></stop><stop offset="79.62962962962963%" stop-color="#fbae3c" stop-opacity="1"></stop></linearGradient></defs><defs><linearGradient id="grad2_2" x1="0%" y1="100%" x2="67.5%" y2="0%"><stop offset="20.37037037037037%" stop-color="#e1685b" stop-opacity="1"></stop><stop offset="79.62962962962963%" stop-color="#98426a" stop-opacity="1"></stop></linearGradient></defs><defs><linearGradient id="grad2_3" x1="0%" y1="100%" x2="67.5%" y2="0%"><stop offset="20.37037037037037%" stop-color="#412e55" stop-opacity="1"></stop><stop offset="79.62962962962963%" stop-color="#98426a" stop-opacity="1"></stop></linearGradient></defs><defs><linearGradient id="grad2_4" x1="0%" y1="100%" x2="67.5%" y2="0%"><stop offset="20.37037037037037%" stop-color="#412e55" stop-opacity="1"></stop><stop offset="79.62962962962963%" stop-color="#001122" stop-opacity="1"></stop></linearGradient></defs><g transform="translate(1600, 1080)"><path d="M-386.1 0C-386.3 -43.4 -386.6 -86.8 -366.2 -119C-345.7 -151.1 -304.7 -172.1 -279.9 -203.4C-255.2 -234.7 -246.8 -276.3 -222.8 -306.6C-198.7 -336.9 -159 -355.8 -119.3 -367.2C-79.6 -378.5 -39.8 -382.3 0 -386.1L0 0Z" fill="#1c213d"></path><path d="M-308.9 0C-309.1 -34.7 -309.3 -69.4 -292.9 -95.2C-276.6 -120.9 -243.7 -137.7 -223.9 -162.7C-204.1 -187.7 -197.4 -221.1 -178.2 -245.3C-159 -269.5 -127.2 -284.7 -95.4 -293.7C-63.7 -302.8 -31.8 -305.8 0 -308.9L0 0Z" fill="#6c3865"></path><path d="M-231.6 0C-231.8 -26 -231.9 -52.1 -219.7 -71.4C-207.4 -90.7 -182.8 -103.2 -168 -122C-153.1 -140.8 -148.1 -165.8 -133.7 -184C-119.2 -202.1 -95.4 -213.5 -71.6 -220.3C-47.7 -227.1 -23.9 -229.4 0 -231.6L0 0Z" fill="#c15167"></path><path d="M-154.4 0C-154.5 -17.4 -154.6 -34.7 -146.5 -47.6C-138.3 -60.5 -121.9 -68.8 -112 -81.3C-102.1 -93.9 -98.7 -110.5 -89.1 -122.6C-79.5 -134.8 -63.6 -142.3 -47.7 -146.9C-31.8 -151.4 -15.9 -152.9 0 -154.4L0 0Z" fill="#f5884c"></path><path d="M-77.2 0C-77.3 -8.7 -77.3 -17.4 -73.2 -23.8C-69.1 -30.2 -60.9 -34.4 -56 -40.7C-51 -46.9 -49.4 -55.3 -44.6 -61.3C-39.7 -67.4 -31.8 -71.2 -23.9 -73.4C-15.9 -75.7 -8 -76.5 0 -77.2L0 0Z" fill="#fbae3c"></path></g><g transform="translate(0, 0)"><path d="M386.1 0C383.5 42.1 380.9 84.2 364.3 118.4C347.6 152.5 316.9 178.7 294.5 214C272 249.2 257.8 293.7 226.9 312.3C196 331 148.5 323.9 107.8 331.9C67.2 339.9 33.6 363 0 386.1L0 0Z" fill="#1c213d"></path><path d="M308.9 0C306.8 33.7 304.7 67.4 291.4 94.7C278.1 122 253.5 142.9 235.6 171.2C217.6 199.4 206.3 234.9 181.5 249.9C156.8 264.8 118.8 259.1 86.3 265.5C53.8 271.9 26.9 290.4 0 308.9L0 0Z" fill="#6c3865"></path><path d="M231.6 0C230.1 25.3 228.5 50.5 218.6 71C208.6 91.5 190.2 107.2 176.7 128.4C163.2 149.5 154.7 176.2 136.2 187.4C117.6 198.6 89.1 194.4 64.7 199.2C40.3 203.9 20.2 217.8 0 231.6L0 0Z" fill="#c15167"></path><path d="M154.4 0C153.4 16.8 152.4 33.7 145.7 47.3C139 61 126.8 71.5 117.8 85.6C108.8 99.7 103.1 117.5 90.8 124.9C78.4 132.4 59.4 129.6 43.1 132.8C26.9 136 13.4 145.2 0 154.4L0 0Z" fill="#f5884c"></path><path d="M77.2 0C76.7 8.4 76.2 16.8 72.9 23.7C69.5 30.5 63.4 35.7 58.9 42.8C54.4 49.8 51.6 58.7 45.4 62.5C39.2 66.2 29.7 64.8 21.6 66.4C13.4 68 6.7 72.6 0 77.2L0 0Z" fill="#fbae3c"></path></g></svg>