<svg id="visual" viewBox="0 0 600 900" width="600" height="900" xmlns="http://www.w3.org/2000/svg" xmlns:xlink="http://www.w3.org/1999/xlink" version="1.1"><rect x="0" y="0" width="600" height="900" fill="#001122"></rect><defs><linearGradient id="grad1_0" x1="0%" y1="100%" x2="100%" y2="0%"><stop offset="30%" stop-color="#fbae3c" stop-opacity="1"></stop><stop offset="70%" stop-color="#fbae3c" stop-opacity="1"></stop></linearGradient></defs><defs><linearGradient id="grad1_1" x1="0%" y1="100%" x2="100%" y2="0%"><stop offset="30%" stop-color="#fbae3c" stop-opacity="1"></stop><stop offset="70%" stop-color="#e1685b" stop-opacity="1"></stop></linearGradient></defs><defs><linearGradient id="grad1_2" x1="0%" y1="100%" x2="100%" y2="0%"><stop offset="30%" stop-color="#98426a" stop-opacity="1"></stop><stop offset="70%" stop-color="#e1685b" stop-opacity="1"></stop></linearGradient></defs><defs><linearGradient id="grad1_3" x1="0%" y1="100%" x2="100%" y2="0%"><stop offset="30%" stop-color="#98426a" stop-opacity="1"></stop><stop offset="70%" stop-color="#412e55" stop-opacity="1"></stop></linearGradient></defs><defs><linearGradient id="grad1_4" x1="0%" y1="100%" x2="100%" y2="0%"><stop offset="30%" stop-color="#001122" stop-opacity="1"></stop><stop offset="70%" stop-color="#412e55" stop-opacity="1"></stop></linearGradient></defs><defs><linearGradient id="grad2_0" x1="0%" y1="100%" x2="100%" y2="0%"><stop offset="30%" stop-color="#fbae3c" stop-opacity="1"></stop><stop offset="70%" stop-color="#fbae3c" stop-opacity="1"></stop></linearGradient></defs><defs><linearGradient id="grad2_1" x1="0%" y1="100%" x2="100%" y2="0%"><stop offset="30%" stop-color="#e1685b" stop-opacity="1"></stop><stop offset="70%" stop-color="#fbae3c" stop-opacity="1"></stop></linearGradient></defs><defs><linearGradient id="grad2_2" x1="0%" y1="100%" x2="100%" y2="0%"><stop offset="30%" stop-color="#e1685b" stop-opacity="1"></stop><stop offset="70%" stop-color="#98426a" stop-opacity="1"></stop></linearGradient></defs><defs><linearGradient id="grad2_3" x1="0%" y1="100%" x2="100%" y2="0%"><stop offset="30%" stop-color="#412e55" stop-opacity="1"></stop><stop offset="70%" stop-color="#98426a" stop-opacity="1"></stop></linearGradient></defs><defs><linearGradient id="grad2_4" x1="0%" y1="100%" x2="100%" y2="0%"><stop offset="30%" stop-color="#412e55" stop-opacity="1"></stop><stop offset="70%" stop-color="#001122" stop-opacity="1"></stop></linearGradient></defs><g transform="translate(600, 900)"><path d="M-216.3 0C-216.8 -24.4 -217.4 -48.8 -205.7 -66.9C-194.1 -84.9 -170.4 -96.5 -154.5 -112.3C-138.6 -128 -130.6 -148 -115.8 -159.4C-101 -170.8 -79.4 -173.6 -59 -181.7C-38.6 -189.7 -19.3 -203 0 -216.3L0 0Z" fill="#1c213d"></path><path d="M-173.1 0C-173.5 -19.5 -173.9 -39.1 -164.6 -53.5C-155.3 -67.9 -136.3 -77.2 -123.6 -89.8C-110.9 -102.4 -104.5 -118.4 -92.6 -127.5C-80.8 -136.6 -63.6 -138.9 -47.2 -145.3C-30.9 -151.8 -15.4 -162.4 0 -173.1L0 0Z" fill="#6c3865"></path><path d="M-129.8 0C-130.1 -14.6 -130.4 -29.3 -123.4 -40.1C-116.5 -50.9 -102.2 -57.9 -92.7 -67.4C-83.2 -76.8 -78.4 -88.8 -69.5 -95.6C-60.6 -102.5 -47.7 -104.2 -35.4 -109C-23.2 -113.8 -11.6 -121.8 0 -129.8L0 0Z" fill="#c15167"></path><path d="M-86.5 0C-86.7 -9.8 -86.9 -19.5 -82.3 -26.7C-77.7 -33.9 -68.2 -38.6 -61.8 -44.9C-55.5 -51.2 -52.2 -59.2 -46.3 -63.8C-40.4 -68.3 -31.8 -69.4 -23.6 -72.7C-15.4 -75.9 -7.7 -81.2 0 -86.5L0 0Z" fill="#f5884c"></path><path d="M-43.3 0C-43.4 -4.9 -43.5 -9.8 -41.1 -13.4C-38.8 -17 -34.1 -19.3 -30.9 -22.5C-27.7 -25.6 -26.1 -29.6 -23.2 -31.9C-20.2 -34.2 -15.9 -34.7 -11.8 -36.3C-7.7 -37.9 -3.9 -40.6 0 -43.3L0 0Z" fill="#fbae3c"></path></g><g transform="translate(0, 0)"><path d="M216.3 0C206.7 20.7 197 41.4 189.3 61.5C181.5 81.5 175.8 100.9 166.7 121.1C157.5 141.3 144.9 162.3 127.2 175C109.4 187.8 86.3 192.3 64.3 197.8C42.2 203.3 21.1 209.8 0 216.3L0 0Z" fill="#1c213d"></path><path d="M173.1 0C165.3 16.6 157.6 33.2 151.4 49.2C145.2 65.2 140.6 80.7 133.3 96.9C126 113 116 129.8 101.7 140C87.5 150.2 69.1 153.8 51.4 158.3C33.8 162.7 16.9 167.9 0 173.1L0 0Z" fill="#6c3865"></path><path d="M129.8 0C124 12.4 118.2 24.9 113.6 36.9C108.9 48.9 105.5 60.5 100 72.7C94.5 84.8 87 97.4 76.3 105C65.6 112.7 51.8 115.4 38.6 118.7C25.3 122 12.7 125.9 0 129.8L0 0Z" fill="#c15167"></path><path d="M86.5 0C82.7 8.3 78.8 16.6 75.7 24.6C72.6 32.6 70.3 40.4 66.7 48.4C63 56.5 58 64.9 50.9 70C43.7 75.1 34.5 76.9 25.7 79.1C16.9 81.3 8.4 83.9 0 86.5L0 0Z" fill="#f5884c"></path><path d="M43.3 0C41.3 4.1 39.4 8.3 37.9 12.3C36.3 16.3 35.2 20.2 33.3 24.2C31.5 28.3 29 32.5 25.4 35C21.9 37.6 17.3 38.5 12.9 39.6C8.4 40.7 4.2 42 0 43.3L0 0Z" fill="#fbae3c"></path></g></svg>